<svg width="10" height="12" viewBox="0 0 10 12" fill="none" xmlns="http://www.w3.org/2000/svg">
<path d="M5.2663 0C2.61766 0 0 1.64454 0 4.30608C0 5.99871 1.02228 6.96042 1.64185 6.96042C1.89742 6.96042 2.04457 6.29684 2.04457 6.1093C2.04457 5.8857 1.43274 5.40965 1.43274 4.47919C1.43274 2.54614 3.01264 1.1757 5.0572 1.1757C6.81522 1.1757 8.1163 2.10616 8.1163 3.81561C8.1163 5.09229 7.56644 7.48696 5.78519 7.48696C5.14239 7.48696 4.59253 7.05419 4.59253 6.43388C4.59253 5.52506 5.27405 4.64509 5.27405 3.70742C5.27405 2.11578 2.85 2.40429 2.85 4.32772C2.85 4.73164 2.90421 5.17884 3.09783 5.5467C2.74158 6.97485 2.01359 9.10264 2.01359 10.5741C2.01359 11.0285 2.08329 11.4757 2.12976 11.9301C2.21753 12.0215 2.17364 12.0118 2.30788 11.9662C3.60897 10.3072 3.5625 9.98261 4.15109 7.81154C4.46861 8.37414 5.28954 8.67708 5.94008 8.67708C8.68166 8.67708 9.91304 6.18864 9.91304 3.94544C9.91304 1.55798 7.6981 0 5.2663 0Z" fill="#696969"/>
</svg>
