<svg width="14" height="12" viewBox="0 0 12 10" fill="none" xmlns="http://www.w3.org/2000/svg">
<path d="M10.7665 2.39249C10.7741 2.49749 10.7741 2.6025 10.7741 2.7075C10.7741 5.90998 8.29953 9.6 3.77666 9.6C2.38325 9.6 1.08884 9.20248 0 8.51251C0.197977 8.535 0.388314 8.5425 0.593909 8.5425C1.74364 8.5425 2.80203 8.16001 3.64722 7.50751C2.56599 7.485 1.6599 6.78751 1.34771 5.8275C1.50001 5.84998 1.65228 5.86499 1.81219 5.86499C2.033 5.86499 2.25383 5.83498 2.4594 5.7825C1.3325 5.55748 0.487291 4.5825 0.487291 3.405V3.37501C0.814691 3.55501 1.19543 3.66751 1.59896 3.68249C0.936519 3.24748 0.502525 2.50499 0.502525 1.66498C0.502525 1.21499 0.624331 0.802491 0.837542 0.442489C2.04821 1.91249 3.86802 2.87247 5.90862 2.97749C5.87055 2.79749 5.8477 2.61001 5.8477 2.4225C5.8477 1.08749 6.94416 0 8.3071 0C9.01522 0 9.65481 0.292499 10.1041 0.765C10.6599 0.660005 11.1929 0.457495 11.665 0.180001C11.4822 0.742514 11.0939 1.21501 10.5838 1.51499C11.0787 1.46252 11.5584 1.32749 12 1.14001C11.665 1.61999 11.2462 2.04747 10.7665 2.39249V2.39249Z" fill="#696969"/>
</svg>
