<svg width="11" height="12" viewBox="0 0 12 13" fill="none" xmlns="http://www.w3.org/2000/svg">
<path d="M2.68601 12.075H0.19817V4.01332H2.68601V12.075ZM1.44075 2.91363C0.645392 2.91363 0 2.25059 0 1.45008C0 0.64957 0.645392 0 1.44075 0C2.23611 0 2.8815 0.64957 2.8815 1.45008C2.8815 2.25059 2.23611 2.91363 1.44075 2.91363ZM11.9973 12.075H9.51484V8.15062C9.51484 7.21535 9.49609 6.01594 8.22138 6.01594C6.92792 6.01594 6.72975 7.03207 6.72975 8.08324V12.075H4.24459V4.01332H6.63066V5.11301H6.66548C6.99755 4.47961 7.80897 3.81117 9.01941 3.81117C11.5367 3.81117 12 5.47957 12 7.6466V12.075H11.9973Z" fill="#696969"/>
</svg>
