<svg width="79" height="97" viewBox="0 0 79 97" fill="none" xmlns="http://www.w3.org/2000/svg">
<path d="M78.4648 57.7675C78.4648 79.435 60.8999 97 39.2324 97V97C17.5649 97 -0.000123606 79.435 -0.0001255 57.7675L-0.00013055 6.85963e-06L78.4648 0L78.4648 57.7675Z" fill="#46EBB0"/>
<path d="M38.0116 69.05C38.0116 66.241 40.2897 69.05 43.1014 69.05C45.9104 69.05 48.1912 66.241 48.1912 69.05C48.1912 71.8591 45.9131 74.1398 43.1014 74.1398C40.2897 74.1398 38.0116 71.8617 38.0116 69.05Z" fill="white"/>
<path d="M21.9867 69.05C21.9867 66.241 24.2648 69.05 27.0765 69.05C29.8855 69.05 32.1663 66.241 32.1663 69.05C32.1663 71.8591 29.8882 74.1398 27.0765 74.1398C24.2648 74.1398 21.9867 71.8617 21.9867 69.05Z" fill="white"/>
<path d="M27.0871 58.2665C27.0871 53.0982 31.2771 48.9108 36.4427 48.9108C41.6083 48.9108 45.7983 53.1009 45.7983 58.2665C45.7983 63.4321 41.6083 57.9055 36.4427 57.9055C31.2771 57.9055 27.0871 63.4321 27.0871 58.2665Z" fill="white"/>
</svg>
