<svg width="130" height="122" viewBox="0 0 84 122" fill="none" xmlns="http://www.w3.org/2000/svg">
<g clip-path="url(#clip0_3_52)">
<path d="M85.6544 95.4833C105.586 81.4273 110.668 54.3283 97.0058 34.9559C83.3439 15.5835 56.1113 11.2738 36.1801 25.3298C16.249 39.3859 11.1667 66.4849 24.8287 85.8573C38.4906 105.23 65.7232 109.539 85.6544 95.4833Z" fill="#FAD34F"/>
<path d="M57.1681 40.788C58.0916 42.0975 56.6388 42.2187 55.2915 43.1688C53.9442 44.119 53.2141 45.5408 52.2889 44.2289C51.3638 42.917 51.709 41.0874 53.0563 40.1372C54.4019 39.1847 56.2429 39.4761 57.1681 40.788Z" fill="white"/>
<path d="M66.4913 34.2131C67.4149 35.5226 65.9621 35.6438 64.6148 36.594C63.2675 37.5441 62.5373 38.9659 61.6122 37.654C60.687 36.3422 61.0322 34.5125 62.3795 33.5624C63.7252 32.6099 65.5662 32.9012 66.4913 34.2131Z" fill="white"/>
<path d="M68.4669 41.9342C70.271 44.4925 69.5998 48.0717 66.9677 49.9279C64.3356 51.7841 60.7388 51.2149 58.9347 48.6566C57.1305 46.0983 61.194 47.3293 63.8261 45.4731C66.4582 43.6169 66.6627 39.376 68.4669 41.9342Z" fill="white"/>
</g>
<defs>
<clipPath id="clip0_3_52">
<rect width="88.3204" height="85.8441" fill="white" transform="translate(0 50.9014) rotate(-35.1926)"/>
</clipPath>
</defs>
</svg>
