<svg width="215" height="209" viewBox="0 0 215 209" fill="none" xmlns="http://www.w3.org/2000/svg">
<g clip-path="url(#clip0_3_69)">
<path d="M106.789 208.833C47.6948 208.833 -0.210723 162.271 -0.210718 104.833C-0.210713 47.3953 47.6948 0.832932 106.789 0.832937C165.884 0.832943 213.789 47.3953 213.789 104.833C213.789 162.271 165.884 208.833 106.789 208.833Z" fill="#F472B7"/>
<path d="M86.8168 60.7504C86.8168 64.6331 89.8627 62.8443 93.8574 62.8443C97.8521 62.8443 101.283 64.64 101.283 60.7504C101.283 56.8608 98.0447 53.72 94.05 53.72C90.0553 53.7131 86.8168 56.8608 86.8168 60.7504Z" fill="white"/>
<path d="M59.1745 60.7504C59.1745 64.6331 62.2204 62.8443 66.2151 62.8443C70.2097 62.8443 73.6409 64.64 73.6409 60.7504C73.6409 56.8608 70.4023 53.72 66.4077 53.72C62.413 53.7131 59.1745 56.8608 59.1745 60.7504Z" fill="white"/>
<path d="M66.0447 78.7982C66.0447 86.3832 72.372 92.5331 80.1759 92.5331C87.9797 92.5331 94.307 86.3832 94.307 78.7982C94.307 71.2131 87.9797 79.3251 80.1759 79.3251C72.372 79.3251 66.0447 71.2131 66.0447 78.7982Z" fill="white"/>
</g>
<defs>
<clipPath id="clip0_3_69">
<rect width="214" height="208" fill="white" transform="matrix(-1 -8.74228e-08 -8.74228e-08 1 214.139 0.944031)"/>
</clipPath>
</defs>
</svg>
