<svg width="17" height="14" viewBox="0 0 17 14" fill="none" xmlns="http://www.w3.org/2000/svg">
<path d="M15.0398 3.49415C15.0501 3.6349 15.0501 3.77568 15.0501 3.91643C15.0501 8.20944 11.7328 13.156 5.66976 13.156C3.80186 13.156 2.06667 12.6231 0.607056 11.6982C0.872449 11.7283 1.1276 11.7384 1.4032 11.7384C2.94445 11.7384 4.36325 11.2257 5.49624 10.351C4.04683 10.3208 2.83219 9.38577 2.41369 8.09886C2.61785 8.129 2.82198 8.14912 3.03635 8.14912C3.33234 8.14912 3.62837 8.10889 3.90394 8.03855C2.3933 7.7369 1.26028 6.4299 1.26028 4.85144V4.81124C1.69917 5.05253 2.20956 5.20334 2.7505 5.22342C1.86248 4.64028 1.2807 3.64496 1.2807 2.51891C1.2807 1.91568 1.44399 1.36272 1.7298 0.880124C3.35273 2.85069 5.79224 4.13758 8.5277 4.27835C8.47668 4.03706 8.44604 3.78574 8.44604 3.53438C8.44604 1.74476 9.91587 0.286957 11.7429 0.286957C12.6922 0.286957 13.5496 0.679059 14.1518 1.31246C14.8969 1.17171 15.6114 0.90024 16.2443 0.528253C15.9992 1.28232 15.4787 1.91571 14.7948 2.31784C15.4583 2.2475 16.1014 2.06649 16.6933 1.81517C16.2443 2.45859 15.6829 3.03164 15.0398 3.49415Z" fill="#696969"/>
</svg>
